<?xml version="1.0" standalone="no"?>
<!DOCTYPE svg PUBLIC "-//W3C//DTD SVG 20010904//EN"
 "http://www.w3.org/TR/2001/REC-SVG-20010904/DTD/svg10.dtd">
<svg version="1.0" xmlns="http://www.w3.org/2000/svg"
 width="282.000000pt" height="282.000000pt" viewBox="0 0 282.000000 282.000000"
 preserveAspectRatio="xMidYMid meet">

<g transform="translate(0.000000,282.000000) scale(0.100000,-0.100000)"
fill="#ffff" stroke="none">
<path d="M1305 2814 c-105 -11 -248 -39 -330 -65 -490 -159 -859 -582 -951
-1089 -24 -129 -24 -373 0 -495 38 -197 120 -396 228 -553 124 -181 358 -378
559 -471 201 -92 355 -125 594 -126 202 0 275 11 455 71 398 133 728 458 869
857 315 893 -322 1832 -1269 1870 -63 3 -133 3 -155 1z m250 -79 c33 -8 98
-34 145 -57 67 -32 102 -58 165 -122 111 -111 170 -228 191 -378 l6 -48 -310
0 -311 0 -6 38 c-34 216 -126 382 -275 497 -34 26 -60 49 -58 51 3 2 40 10 84
18 108 19 294 20 369 1z m-471 -95 c153 -103 265 -281 283 -451 l6 -58 -394
-3 c-393 -4 -394 -4 -471 -29 -118 -40 -204 -94 -290 -179 -43 -43 -78 -76
-78 -75 0 33 96 225 162 324 65 97 251 283 348 348 105 70 302 167 352 172 3
1 40 -22 82 -49z m847 4 c155 -66 301 -165 424 -289 66 -66 175 -201 175 -217
0 -5 -92 -8 -204 -8 l-203 0 -6 60 c-18 163 -108 330 -245 453 -23 20 -38 37
-33 37 5 0 47 -16 92 -36z m-561 -607 c0 -55 -28 -148 -72 -237 -55 -113 -159
-218 -273 -277 -142 -73 -154 -75 -577 -80 l-378 -5 0 34 c0 55 27 147 69 233
68 138 193 254 335 312 108 45 175 51 549 52 l347 1 0 -33z m686 -14 c-32
-226 -172 -421 -371 -514 -110 -52 -163 -60 -400 -66 -121 -3 -229 -4 -239 -2
-15 3 -4 14 43 42 123 76 237 206 290 331 23 53 46 139 56 209 l6 47 311 0
310 0 -6 -47z m551 -18 c42 -78 97 -246 119 -360 11 -58 17 -139 17 -230 0
-210 -36 -377 -120 -557 l-46 -98 -229 0 -228 0 0 33 c0 117 -86 307 -187 417
-52 56 -185 160 -206 160 -2 0 -26 9 -52 21 l-48 21 79 38 c141 66 241 156
319 285 39 65 81 186 90 260 4 28 8 56 11 63 3 10 53 12 226 10 l223 -3 32
-60z m-1677 -661 c239 -85 412 -296 437 -532 l6 -53 -389 3 -389 3 -85 31
c-194 69 -340 214 -405 401 -14 38 -27 95 -31 127 l-7 57 389 -3 389 -3 85
-31z m615 21 c118 -25 227 -86 320 -179 111 -111 170 -228 191 -378 l6 -48
-310 0 -311 0 -6 38 c-39 250 -153 428 -351 547 l-58 35 225 0 c158 0 245 -5
294 -15z m-1232 -544 c27 -18 77 -46 113 -62 126 -57 156 -61 567 -66 l377 -5
0 -308 0 -309 -57 6 c-270 23 -505 113 -715 270 -168 127 -319 314 -406 504
-63 136 -62 141 9 68 35 -36 86 -80 112 -98z m1747 -356 l0 -224 -75 -36
c-147 -69 -312 -114 -482 -129 l-63 -6 0 310 0 310 310 0 310 0 0 -225z m455
198 c-38 -59 -116 -151 -181 -214 -70 -67 -189 -159 -205 -159 -5 0 -9 90 -9
200 l0 200 206 0 206 0 -17 -27z"/>
</g>
</svg>
